<svg width="121" height="136" viewBox="0 0 121 136" fill="none" xmlns="http://www.w3.org/2000/svg">
<path d="M51.125 34.9688V55.0312C51.125 56.4688 51.7812 57.5625 53.0937 58.3125C54.4062 59.0625 55.6875 59 56.9375 58.125L72.5 48.1875C73.6875 47.4375 74.2812 46.375 74.2812 45C74.2812 43.625 73.6875 42.5625 72.5 41.8125L56.9375 31.875C55.6875 31 54.4062 30.9375 53.0937 31.6875C51.7812 32.4375 51.125 33.5312 51.125 34.9688ZM60.5 82.5C55.3125 82.5 50.4375 81.515 45.875 79.545C41.3125 77.5775 37.3438 74.9062 33.9688 71.5312C30.5938 68.1562 27.9225 64.1875 25.955 59.625C23.985 55.0625 23 50.1875 23 45C23 39.8125 23.985 34.9375 25.955 30.375C27.9225 25.8125 30.5938 21.8438 33.9688 18.4688C37.3438 15.0938 41.3125 12.4212 45.875 10.4512C50.4375 8.48375 55.3125 7.5 60.5 7.5C65.6875 7.5 70.5625 8.48375 75.125 10.4512C79.6875 12.4212 83.6562 15.0938 87.0312 18.4688C90.4062 21.8438 93.0775 25.8125 95.045 30.375C97.015 34.9375 98 39.8125 98 45C98 50.1875 97.015 55.0625 95.045 59.625C93.0775 64.1875 90.4062 68.1562 87.0312 71.5312C83.6562 74.9062 79.6875 77.5775 75.125 79.545C70.5625 81.515 65.6875 82.5 60.5 82.5Z" fill="#F5841F"/>
<path d="M5.605 128L0.323 114.757H2.166L6.498 125.967H6.023L10.298 114.757H12.141L6.897 128H5.605ZM13.8178 128V118.633H15.4138V128H13.8178ZM13.6658 116.942V114.757H15.5658V116.942H13.6658ZM21.9419 128.152C21.0932 128.152 20.3459 127.943 19.6999 127.525C19.0665 127.094 18.5725 126.512 18.2179 125.777C17.8632 125.042 17.6859 124.219 17.6859 123.307C17.6859 122.319 17.8759 121.464 18.2559 120.742C18.6359 120.02 19.1489 119.463 19.7949 119.07C20.4409 118.677 21.1565 118.481 21.9419 118.481C22.5372 118.481 23.0692 118.601 23.5379 118.842C24.0065 119.07 24.3992 119.387 24.7159 119.792C25.0452 120.185 25.2732 120.628 25.3999 121.122L24.9439 121.426V114.757H26.5399V128H24.9439V125.207L25.4759 125.378C25.3112 125.923 25.0642 126.404 24.7349 126.822C24.4055 127.24 24.0065 127.569 23.5379 127.81C23.0692 128.038 22.5372 128.152 21.9419 128.152ZM22.2079 126.67C22.7779 126.67 23.2782 126.531 23.7089 126.252C24.1395 125.961 24.4752 125.562 24.7159 125.055C24.9565 124.548 25.0769 123.966 25.0769 123.307C25.0769 122.648 24.9565 122.066 24.7159 121.559C24.4752 121.052 24.1395 120.66 23.7089 120.381C23.2782 120.09 22.7779 119.944 22.2079 119.944C21.6379 119.944 21.1312 120.09 20.6879 120.381C20.2572 120.66 19.9152 121.052 19.6619 121.559C19.4212 122.066 19.3009 122.648 19.3009 123.307C19.3009 123.966 19.4212 124.548 19.6619 125.055C19.9152 125.562 20.2572 125.961 20.6879 126.252C21.1312 126.531 21.6379 126.67 22.2079 126.67ZM33.2263 128.152C32.4916 128.152 31.8456 128.032 31.2883 127.791C30.7436 127.538 30.2876 127.189 29.9203 126.746C29.5656 126.303 29.2933 125.796 29.1033 125.226C28.9259 124.643 28.8373 124.029 28.8373 123.383C28.8373 122.737 28.9259 122.123 29.1033 121.54C29.2806 120.945 29.5403 120.419 29.8823 119.963C30.2369 119.507 30.6803 119.146 31.2123 118.88C31.7443 118.614 32.3649 118.481 33.0743 118.481C33.7963 118.481 34.4169 118.608 34.9363 118.861C35.4683 119.102 35.8989 119.437 36.2283 119.868C36.5703 120.299 36.8236 120.78 36.9883 121.312C37.1529 121.844 37.2353 122.395 37.2353 122.965C37.2353 123.016 37.2289 123.136 37.2163 123.326C37.2163 123.503 37.2036 123.662 37.1783 123.801H30.4333C30.4713 124.713 30.7373 125.422 31.2313 125.929C31.7253 126.436 32.3966 126.689 33.2453 126.689C33.7899 126.689 34.2649 126.6 34.6703 126.423C35.0756 126.246 35.4556 125.961 35.8103 125.568L36.9313 126.556C36.5893 126.923 36.2283 127.227 35.8483 127.468C35.4683 127.696 35.0629 127.867 34.6323 127.981C34.2143 128.095 33.7456 128.152 33.2263 128.152ZM35.6393 122.984C35.6646 122.883 35.6773 122.781 35.6773 122.68C35.6899 122.579 35.6963 122.477 35.6963 122.376C35.6963 122.072 35.6393 121.768 35.5253 121.464C35.4239 121.16 35.2656 120.888 35.0503 120.647C34.8476 120.394 34.5816 120.197 34.2523 120.058C33.9356 119.906 33.5556 119.83 33.1123 119.83C32.5676 119.83 32.0989 119.957 31.7063 120.21C31.3136 120.463 31.0096 120.799 30.7943 121.217C30.5789 121.635 30.4523 122.097 30.4142 122.604H36.1713L35.6393 122.984ZM43.658 128.152C42.784 128.152 41.9987 127.949 41.302 127.544C40.618 127.126 40.0797 126.55 39.687 125.815C39.2943 125.08 39.098 124.244 39.098 123.307C39.098 122.37 39.288 121.54 39.668 120.818C40.0607 120.083 40.599 119.513 41.283 119.108C41.9797 118.69 42.7713 118.481 43.658 118.481C44.5447 118.481 45.3237 118.69 45.995 119.108C46.679 119.513 47.2173 120.083 47.61 120.818C48.0027 121.54 48.199 122.37 48.199 123.307C48.199 124.244 48.0027 125.08 47.61 125.815C47.2173 126.537 46.679 127.107 45.995 127.525C45.311 127.943 44.532 128.152 43.658 128.152ZM43.658 126.727C44.2533 126.727 44.7663 126.588 45.197 126.309C45.6403 126.018 45.9823 125.619 46.223 125.112C46.4637 124.593 46.584 123.991 46.584 123.307C46.584 122.61 46.4637 122.009 46.223 121.502C45.9823 120.983 45.6403 120.584 45.197 120.305C44.7663 120.026 44.2533 119.887 43.658 119.887C43.05 119.887 42.5243 120.033 42.081 120.324C41.6377 120.603 41.2957 120.995 41.055 121.502C40.8143 122.009 40.694 122.61 40.694 123.307C40.694 123.991 40.8143 124.593 41.055 125.112C41.2957 125.619 41.6377 126.018 42.081 126.309C42.5243 126.588 43.05 126.727 43.658 126.727ZM53.4127 128.152C52.9694 128.152 52.564 128.07 52.1967 127.905C51.842 127.728 51.5634 127.449 51.3607 127.069C51.158 126.689 51.0567 126.201 51.0567 125.606V116.125L52.6907 115.213V125.188C52.6907 125.707 52.773 126.113 52.9377 126.404C53.1024 126.683 53.4 126.822 53.8307 126.822C53.9574 126.822 54.1094 126.809 54.2867 126.784C54.464 126.746 54.654 126.702 54.8567 126.651V127.905C54.616 127.994 54.369 128.057 54.1157 128.095C53.875 128.133 53.6407 128.152 53.4127 128.152ZM49.1187 119.887V118.633H54.8567V119.887H49.1187ZM60.0191 128.152C59.3477 128.152 58.7651 128.019 58.2711 127.753C57.7771 127.474 57.3971 127.069 57.1311 126.537C56.8777 126.005 56.7511 125.346 56.7511 124.561V118.633H58.3471V123.991C58.3471 124.612 58.4231 125.131 58.5751 125.549C58.7397 125.954 58.9804 126.258 59.2971 126.461C59.6137 126.651 60.0064 126.746 60.4751 126.746C60.9944 126.746 61.4314 126.626 61.7861 126.385C62.1534 126.132 62.4321 125.752 62.6221 125.245C62.8121 124.738 62.9071 124.086 62.9071 123.288V118.633H64.5031V128H62.9071V126.005H63.3061C63.0401 126.702 62.6157 127.234 62.0331 127.601C61.4504 127.968 60.7791 128.152 60.0191 128.152ZM70.3717 128.152C69.9284 128.152 69.523 128.07 69.1557 127.905C68.801 127.728 68.5224 127.449 68.3197 127.069C68.117 126.689 68.0157 126.201 68.0157 125.606V116.125L69.6497 115.213V125.188C69.6497 125.707 69.732 126.113 69.8967 126.404C70.0614 126.683 70.359 126.822 70.7897 126.822C70.9164 126.822 71.0684 126.809 71.2457 126.784C71.423 126.746 71.613 126.702 71.8157 126.651V127.905C71.575 127.994 71.328 128.057 71.0747 128.095C70.834 128.133 70.5997 128.152 70.3717 128.152ZM66.0777 119.887V118.633H71.8157V119.887H66.0777ZM77.7615 128.152C76.8875 128.152 76.1022 127.949 75.4055 127.544C74.7215 127.126 74.1832 126.55 73.7905 125.815C73.3978 125.08 73.2015 124.244 73.2015 123.307C73.2015 122.37 73.3915 121.54 73.7715 120.818C74.1642 120.083 74.7025 119.513 75.3865 119.108C76.0832 118.69 76.8748 118.481 77.7615 118.481C78.6482 118.481 79.4272 118.69 80.0985 119.108C80.7825 119.513 81.3208 120.083 81.7135 120.818C82.1062 121.54 82.3025 122.37 82.3025 123.307C82.3025 124.244 82.1062 125.08 81.7135 125.815C81.3208 126.537 80.7825 127.107 80.0985 127.525C79.4145 127.943 78.6355 128.152 77.7615 128.152ZM77.7615 126.727C78.3568 126.727 78.8698 126.588 79.3005 126.309C79.7438 126.018 80.0858 125.619 80.3265 125.112C80.5672 124.593 80.6875 123.991 80.6875 123.307C80.6875 122.61 80.5672 122.009 80.3265 121.502C80.0858 120.983 79.7438 120.584 79.3005 120.305C78.8698 120.026 78.3568 119.887 77.7615 119.887C77.1535 119.887 76.6278 120.033 76.1845 120.324C75.7412 120.603 75.3992 120.995 75.1585 121.502C74.9178 122.009 74.7975 122.61 74.7975 123.307C74.7975 123.991 74.9178 124.593 75.1585 125.112C75.3992 125.619 75.7412 126.018 76.1845 126.309C76.6278 126.588 77.1535 126.727 77.7615 126.727ZM84.6043 128V118.633H86.2193V121.141L85.8013 121.236C85.89 120.679 86.099 120.197 86.4283 119.792C86.7703 119.374 87.163 119.051 87.6063 118.823C88.0623 118.595 88.5057 118.481 88.9363 118.481C89.2277 118.481 89.5063 118.513 89.7723 118.576C90.0383 118.639 90.3107 118.747 90.5893 118.899L89.7913 120.343C89.6393 120.267 89.4557 120.204 89.2403 120.153C89.0377 120.102 88.8413 120.077 88.6513 120.077C88.3473 120.077 88.0433 120.134 87.7393 120.248C87.448 120.362 87.182 120.539 86.9413 120.78C86.7007 121.021 86.517 121.344 86.3903 121.749C86.3397 121.926 86.2953 122.161 86.2573 122.452C86.232 122.731 86.2193 123.117 86.2193 123.611V128H84.6043ZM92.3226 128V118.633H93.9186V128H92.3226ZM92.1706 116.942V114.757H94.0706V116.942H92.1706ZM102.784 128L102.67 126.119V122.129C102.67 121.407 102.467 120.85 102.062 120.457C101.669 120.064 101.08 119.868 100.295 119.868C99.7881 119.868 99.3131 119.976 98.8698 120.191C98.4264 120.394 97.9958 120.742 97.5778 121.236L96.4188 120.248C96.9381 119.64 97.5334 119.197 98.2048 118.918C98.8761 118.627 99.6108 118.481 100.409 118.481C101.637 118.481 102.587 118.798 103.259 119.431C103.93 120.064 104.266 120.964 104.266 122.129V128H102.784ZM99.6868 128.152C98.9774 128.152 98.3568 128.032 97.8248 127.791C97.3054 127.538 96.9001 127.189 96.6088 126.746C96.3301 126.303 96.1908 125.79 96.1908 125.207C96.1908 124.688 96.2921 124.251 96.4948 123.896C96.7101 123.529 96.9824 123.244 97.3118 123.041C97.6411 122.826 98.0148 122.68 98.4328 122.604C98.8634 122.515 99.3131 122.471 99.7818 122.471H102.822V123.687H100.01C99.7311 123.687 99.4398 123.712 99.1358 123.763C98.8318 123.814 98.5658 123.921 98.3378 124.086C98.1731 124.213 98.0401 124.371 97.9388 124.561C97.8501 124.751 97.8058 124.973 97.8058 125.226C97.8058 125.72 97.9894 126.113 98.3568 126.404C98.7241 126.695 99.2181 126.841 99.8388 126.841C100.358 126.841 100.827 126.721 101.245 126.48C101.675 126.239 102.017 125.91 102.271 125.492C102.537 125.061 102.67 124.58 102.67 124.048L103.335 124.732C103.259 125.403 103.056 125.999 102.727 126.518C102.397 127.037 101.973 127.443 101.454 127.734C100.947 128.013 100.358 128.152 99.6868 128.152ZM99.8578 117.436L101.929 114.757H103.658L101.055 117.436H99.8578ZM108.77 128.152C108.2 128.152 107.737 127.975 107.383 127.62C107.028 127.265 106.851 126.702 106.851 125.929V114.757H108.447V125.625C108.447 125.992 108.523 126.258 108.675 126.423C108.827 126.588 109.029 126.67 109.283 126.67C109.397 126.67 109.523 126.657 109.663 126.632C109.802 126.607 109.948 126.569 110.1 126.518V127.886C109.884 127.975 109.656 128.038 109.416 128.076C109.175 128.127 108.96 128.152 108.77 128.152ZM112.848 131.857L114.634 127.544L110.986 118.633H112.753L115.489 125.929L118.244 118.633H119.992L114.596 131.857H112.848Z" fill="black"/>
</svg>
